<?xml version="1.0" encoding="utf-8"?>
<!-- Generator: Adobe Illustrator 16.0.0, SVG Export Plug-In . SVG Version: 6.00 Build 0)  -->
<!DOCTYPE svg PUBLIC "-//W3C//DTD SVG 1.1//EN" "http://www.w3.org/Graphics/SVG/1.1/DTD/svg11.dtd">
<svg version="1.1" id="Calque_1" xmlns="http://www.w3.org/2000/svg" xmlns:xlink="http://www.w3.org/1999/xlink" x="0px" y="0px"
	 width="80px" height="70px" viewBox="0 0 80 70" enable-background="new 0 0 80 70" xml:space="preserve">
<g>
	<g>
		
			<image overflow="visible" opacity="0.25" width="409" height="367" xlink:href="AC3E7C48.png"  transform="matrix(0.24 0 0 0.24 -6 -6)">
		</image>
		<g>
			<rect fill="#9A9999" width="80" height="70"/>
		</g>
	</g>
	<g>
		<path fill="#FFFFFF" d="M34.941,40.186v-2.094c0-1.59,0.333-2.934,0.994-4.03c0.664-1.095,1.84-2.162,3.53-3.201
			c1.341-0.828,2.305-1.575,2.895-2.24c0.588-0.665,0.881-1.429,0.881-2.288c0-0.682-0.313-1.221-0.943-1.619
			c-0.63-0.398-1.449-0.597-2.461-0.597c-2.502,0-5.425,0.868-8.772,2.604L27.609,20.1c4.127-2.304,8.434-3.457,12.925-3.457
			c3.694,0,6.593,0.795,8.699,2.385c2.104,1.591,3.156,3.758,3.156,6.5c0,1.964-0.469,3.664-1.405,5.101
			c-0.935,1.437-2.431,2.795-4.486,4.077c-1.738,1.104-2.829,1.912-3.268,2.424c-0.438,0.51-0.658,1.114-0.658,1.813v1.242H34.941z
			 M33.872,48.706c0-1.494,0.444-2.645,1.331-3.457c0.886-0.812,2.191-1.216,3.914-1.216c1.657,0,2.928,0.408,3.815,1.229
			c0.888,0.819,1.33,1.968,1.33,3.444s-0.461,2.621-1.38,3.433s-2.174,1.219-3.765,1.219c-1.641,0-2.925-0.403-3.853-1.207
			C34.336,51.347,33.872,50.2,33.872,48.706z"/>
	</g>
</g>
</svg>
