<?xml version="1.0" encoding="utf-8"?>
<!-- Generator: Adobe Illustrator 16.0.0, SVG Export Plug-In . SVG Version: 6.00 Build 0)  -->
<!DOCTYPE svg PUBLIC "-//W3C//DTD SVG 1.1//EN" "http://www.w3.org/Graphics/SVG/1.1/DTD/svg11.dtd">
<svg version="1.1" id="Calque_1" xmlns="http://www.w3.org/2000/svg" xmlns:xlink="http://www.w3.org/1999/xlink" x="0px" y="0px"
	 width="154.525px" height="39.502px" viewBox="0 0 154.525 39.502" enable-background="new 0 0 154.525 39.502"
	 xml:space="preserve">
<g>
	<g>
		<path opacity="0.3" fill="#4E4E4E" stroke="#4E4E4E" stroke-miterlimit="10" d="M34.928,23.012
			c-3.468-1.383-8.825-0.729-13.387,2.459c-4.559,3.188-10.218,14.031-10.218,14.031s18.222-5.834,22.782-9.021
			C38.665,27.295,38.397,24.396,34.928,23.012z M26.555,28.861c-1.151-0.459-1.08-1.533,0.159-2.4
			c1.242-0.865,3.181-1.195,4.332-0.736s1.076,1.535-0.161,2.4C29.645,28.99,27.707,29.32,26.555,28.861z"/>
		<path fill="#009245" d="M11.558,0.003C5.304-0.119,0.153,4.039,0.001,11.67c-0.15,7.631,10.777,27.832,10.777,27.832
			s11.716-19.754,11.867-27.388C22.796,4.483,17.811,0.127,11.558,0.003z M11.281,14.017c-2.073-0.042-3.723-1.757-3.68-3.83
			c0.038-2.077,1.753-3.724,3.83-3.686c2.075,0.043,3.723,1.758,3.682,3.831C15.073,12.408,13.358,14.056,11.281,14.017z"/>
	</g>
	<g>
		<path opacity="0.3" fill="#4E4E4E" stroke="#4E4E4E" stroke-miterlimit="10" d="M151.922,23.012
			c-3.47-1.387-8.827-0.729-13.387,2.459s-10.218,14.031-10.218,14.031s18.222-5.834,22.78-9.021
			C155.659,27.295,155.391,24.396,151.922,23.012z M143.548,28.861c-1.151-0.459-1.079-1.533,0.16-2.398
			c1.239-0.867,3.178-1.197,4.329-0.738s1.079,1.535-0.16,2.398C146.638,28.99,144.7,29.32,143.548,28.861z"/>
		<path fill="#E52620" d="M128.552,0.003c-6.254-0.122-11.406,4.033-11.557,11.665c-0.151,7.633,10.777,27.833,10.777,27.833
			s11.716-19.755,11.866-27.388C139.79,4.483,134.805,0.127,128.552,0.003z M128.275,14.017c-2.073-0.042-3.724-1.757-3.683-3.83
			c0.041-2.077,1.755-3.725,3.832-3.685c2.076,0.04,3.724,1.757,3.683,3.83C132.066,12.408,130.353,14.056,128.275,14.017z"/>
	</g>
	<g>
		<path opacity="0.3" fill="#4E4E4E" stroke="#4E4E4E" stroke-miterlimit="10" d="M93.423,23.012
			c-3.469-1.383-8.825-0.729-13.384,2.457c-4.561,3.188-10.22,14.033-10.22,14.033s18.222-5.834,22.782-9.023
			C97.162,27.293,96.894,24.393,93.423,23.012z M85.051,28.861c-1.151-0.459-1.08-1.533,0.161-2.4
			c1.239-0.865,3.177-1.195,4.329-0.736c1.151,0.457,1.079,1.533-0.16,2.398C88.142,28.99,86.203,29.32,85.051,28.861z"/>
		<path fill="#F39323" d="M70.053,0.002C63.8-0.12,58.649,4.037,58.499,11.67c-0.15,7.631,10.778,27.832,10.778,27.832
			s11.714-19.755,11.865-27.388C81.291,4.483,76.308,0.126,70.053,0.002z M69.779,14.015c-2.074-0.04-3.726-1.756-3.684-3.83
			c0.039-2.077,1.755-3.726,3.831-3.684c2.075,0.041,3.724,1.757,3.685,3.83C73.569,12.407,71.854,14.055,69.779,14.015z"/>
	</g>
</g>
</svg>
