<?xml version="1.0" encoding="utf-8"?>
<!-- Generator: Adobe Illustrator 16.0.0, SVG Export Plug-In . SVG Version: 6.00 Build 0)  -->
<!DOCTYPE svg PUBLIC "-//W3C//DTD SVG 1.1//EN" "http://www.w3.org/Graphics/SVG/1.1/DTD/svg11.dtd">
<svg version="1.1" id="Calque_1" xmlns="http://www.w3.org/2000/svg" xmlns:xlink="http://www.w3.org/1999/xlink" x="0px" y="0px"
	 width="40.204px" height="39.815px" viewBox="0 0 40.204 39.815" enable-background="new 0 0 40.204 39.815" xml:space="preserve">
<g>
	<g>
		<path fill="#EF793D" d="M8.07,21.844c0.23,0.754,0.47,1.533,0.589,2.316c0.048,0.32,0.239,2.645,0.343,3.924
			c0.039,0.488,0.41,0.887,0.896,0.959l1.695,0.258c0.245,0.037,0.44,0.223,0.488,0.465l0.223,1.145
			c0.098,0.496,0.533,0.855,1.039,0.855l13.154-0.008c0.498-0.002,0.928-0.348,1.033-0.834l0.256-1.178
			c0.057-0.232,0.249-0.406,0.485-0.441l2.065-0.299c0.496-0.072,0.873-0.482,0.904-0.982c0.078-1.314,0.227-3.709,0.272-4.035
			c0.108-0.775,0.337-1.541,0.558-2.285c0.31-1.042,0.629-2.117,0.629-3.235c0.001-7.142-5.676-12.95-12.652-12.95
			c-6.978,0-12.654,5.812-12.654,12.955C7.395,19.642,7.738,20.762,8.07,21.844z M21.697,21.186c0.08-2.029,1.898-2.539,3.928-2.458
			c2.028,0.08,3.498,0.721,3.418,2.75c-0.08,2.027-1.789,3.607-3.818,3.527C23.196,24.924,21.617,23.215,21.697,21.186z
			 M20.504,25.167l1.316,1.949c0.117,0.174,0.133,0.395,0.042,0.582l-0.188,0.393c-0.098,0.201-0.303,0.33-0.527,0.33h-1.129h-1.127
			c-0.225,0-0.43-0.129-0.527-0.33l-0.189-0.393c-0.09-0.188-0.074-0.408,0.043-0.582l1.316-1.949
			C19.766,24.823,20.271,24.823,20.504,25.167z M14.472,18.728c2.028-0.08,3.848,0.43,3.928,2.458
			c0.08,2.029-1.499,3.738-3.527,3.818s-3.737-1.5-3.817-3.527C10.974,19.448,12.443,18.808,14.472,18.728z"/>
		<path fill="#EF793D" d="M36.549,3.656c0.157-0.97-0.138-1.998-0.887-2.743c-1.205-1.198-3.168-1.22-4.397-0.048
			c-1.284,1.226-1.304,3.262-0.054,4.51l-1.148,1.147c-0.459,0.459-0.459,1.202,0,1.661l1.958,1.958
			c0.458,0.458,1.202,0.458,1.661,0l1.146-1.147c1.249,1.248,3.285,1.23,4.511-0.055c1.172-1.229,1.15-3.193-0.048-4.396
			C38.545,3.793,37.518,3.498,36.549,3.656z"/>
		<path fill="#EF793D" d="M5.375,8.994l1.147,1.147c0.459,0.458,1.202,0.458,1.661,0l1.957-1.958c0.459-0.459,0.459-1.202,0-1.661
			L8.994,5.375c1.248-1.248,1.23-3.284-0.055-4.51c-1.229-1.172-3.193-1.15-4.396,0.048c-0.75,0.745-1.045,1.773-0.887,2.743
			c-0.97-0.158-1.998,0.137-2.744,0.887c-1.197,1.203-1.219,3.168-0.047,4.396C2.091,10.225,4.127,10.242,5.375,8.994z"/>
		<path fill="#EF793D" d="M39.339,30.875c-1.226-1.285-3.262-1.303-4.511-0.055l-1.146-1.146c-0.459-0.459-1.203-0.459-1.661,0
			l-1.958,1.957c-0.459,0.459-0.459,1.203,0,1.66l1.148,1.148c-1.249,1.248-1.23,3.285,0.054,4.51
			c1.229,1.172,3.192,1.15,4.397-0.047c0.749-0.746,1.044-1.773,0.887-2.744c0.969,0.158,1.997-0.137,2.742-0.887
			C40.489,34.069,40.512,32.104,39.339,30.875z"/>
		<path fill="#EF793D" d="M3.656,36.159c-0.158,0.971,0.137,1.998,0.887,2.744c1.203,1.197,3.168,1.219,4.396,0.047
			c1.285-1.225,1.303-3.262,0.055-4.51l1.146-1.148c0.459-0.457,0.459-1.201,0-1.66l-1.957-1.957c-0.459-0.459-1.202-0.459-1.66,0
			l-1.148,1.146c-1.248-1.248-3.284-1.23-4.51,0.055c-1.172,1.229-1.15,3.193,0.047,4.396C1.658,36.022,2.687,36.317,3.656,36.159z"
			/>
	</g>
</g>
</svg>
