<?xml version="1.0" encoding="utf-8"?>
<!-- Generator: Adobe Illustrator 16.0.0, SVG Export Plug-In . SVG Version: 6.00 Build 0)  -->
<!DOCTYPE svg PUBLIC "-//W3C//DTD SVG 1.1//EN" "http://www.w3.org/Graphics/SVG/1.1/DTD/svg11.dtd">
<svg version="1.1" id="Calque_1" xmlns="http://www.w3.org/2000/svg" xmlns:xlink="http://www.w3.org/1999/xlink" x="0px" y="0px"
	 width="92.738px" height="43.667px" viewBox="0 0 40 40" enable-background="new 0 0 92.738 43.667" xml:space="preserve">

	<g>
		<path fill="#009245" d="M32.595,22.425c-0.337,0.266-0.438,0.74-0.237,1.119c0.709,1.324,0.576,4.143-1.219,5.109
			c-0.434,0.232-0.638,0.752-0.425,1.197c0.763,1.586,0.651,4.859-1.755,5.5c-0.451,0.121-0.745,0.545-0.686,1.008
			c0.183,1.436-0.104,4.201-4.605,5.326c-0.904,0.227-1.877,0.342-2.913,0.342c-3.845,0-8.553-1.59-13.783-5.027
			c-0.11-0.07-0.238-0.119-0.368-0.139l-5.807-0.887C0.348,35.905,0,35.518,0,35.065V18.987c0-0.243,6.719-4.155,8.695-6.071
			c2.504-2.428,4.301-6.985,6.854-10.952C16.436,0.586,17.6,0,18.684,0c2.035,0,3.791,2.069,2.916,4.854
			c-0.809,2.58-1.65,4.881-2.807,6.953c-0.941,1.687,0.281,3.767,2.212,3.767h9.867C34.669,15.574,34.563,20.874,32.595,22.425z"/>
	</g>

</svg>
