<?xml version="1.0" encoding="utf-8"?>
<!-- Generator: Adobe Illustrator 16.0.0, SVG Export Plug-In . SVG Version: 6.00 Build 0)  -->
<!DOCTYPE svg PUBLIC "-//W3C//DTD SVG 1.1//EN" "http://www.w3.org/Graphics/SVG/1.1/DTD/svg11.dtd">
<svg version="1.1" id="Calque_1" xmlns="http://www.w3.org/2000/svg" xmlns:xlink="http://www.w3.org/1999/xlink" x="0px" y="0px"
	 width="92.738px" height="43.667px" viewBox="0 0 92.738 43.667" enable-background="new 0 0 92.738 43.667" xml:space="preserve">

	<g>
		<path fill="#E52620" d="M59.563,20.842c0.344-0.271,0.447-0.753,0.241-1.139c-0.722-1.347-0.587-4.218,1.241-5.2
			c0.44-0.236,0.648-0.767,0.432-1.218c-0.775-1.615-0.662-4.947,1.786-5.599c0.46-0.122,0.759-0.554,0.698-1.026
			c-0.186-1.461,0.105-4.275,4.688-5.421c0.92-0.23,1.911-0.348,2.965-0.348c3.914,0,8.705,1.619,14.029,5.115
			c0.111,0.073,0.242,0.122,0.374,0.143l5.91,0.903c0.457,0.069,0.812,0.462,0.812,0.925v16.365c0,0.246-6.838,4.227-8.851,6.178
			c-2.548,2.471-4.378,7.109-6.976,11.146c-0.902,1.404-2.086,2-3.189,2c-2.072,0-3.859-2.105-2.969-4.941
			c0.822-2.625,1.68-4.967,2.857-7.078c0.957-1.717-0.287-3.832-2.252-3.832H61.316C57.451,27.815,57.561,22.42,59.563,20.842z"/>
	</g>

</svg>
