<?xml version="1.0" encoding="utf-8"?>
<!-- Generator: Adobe Illustrator 16.0.0, SVG Export Plug-In . SVG Version: 6.00 Build 0)  -->
<!DOCTYPE svg PUBLIC "-//W3C//DTD SVG 1.1//EN" "http://www.w3.org/Graphics/SVG/1.1/DTD/svg11.dtd">
<svg version="1.1" id="Calque_1" xmlns="http://www.w3.org/2000/svg" xmlns:xlink="http://www.w3.org/1999/xlink" x="0px" y="0px"
	 width="36.333px" height="44.667px" viewBox="0 0 36.333 44.667" enable-background="new 0 0 36.333 44.667" xml:space="preserve">
<g>
	<path fill="#009245" d="M33.792,23.745c-0.338,0.266-0.439,0.739-0.236,1.118c0.709,1.324,0.576,4.144-1.22,5.109
		c-0.433,0.233-0.638,0.753-0.425,1.197c0.762,1.586,0.65,4.859-1.754,5.501c-0.452,0.12-0.746,0.544-0.687,1.007
		c0.183,1.437-0.104,4.201-4.604,5.326c-0.904,0.227-1.879,0.342-2.914,0.342c-3.845,0-8.553-1.59-13.783-5.026
		c-0.11-0.07-0.238-0.12-0.368-0.139l-5.807-0.888c-0.449-0.068-0.797-0.454-0.797-0.908V20.308c0-0.243,6.718-4.155,8.695-6.071
		c2.503-2.428,4.3-6.985,6.853-10.952c0.888-1.378,2.051-1.964,3.135-1.964c2.035,0,3.791,2.069,2.917,4.854
		c-0.81,2.58-1.652,4.881-2.808,6.953c-0.941,1.687,0.281,3.767,2.212,3.767h9.867C35.866,16.895,35.76,22.194,33.792,23.745z"/>
</g>
</svg>
