<?xml version="1.0" encoding="utf-8"?>
<!-- Generator: Adobe Illustrator 16.0.0, SVG Export Plug-In . SVG Version: 6.00 Build 0)  -->
<!DOCTYPE svg PUBLIC "-//W3C//DTD SVG 1.1//EN" "http://www.w3.org/Graphics/SVG/1.1/DTD/svg11.dtd">
<svg version="1.1" id="Calque_1" xmlns="http://www.w3.org/2000/svg" xmlns:xlink="http://www.w3.org/1999/xlink" x="0px" y="0px"
	 width="65.335px" height="69.167px" viewBox="0 0 65.335 69.167" enable-background="new 0 0 65.335 69.167" xml:space="preserve">
<g>
	<path opacity="0.3" fill="#4E4E4E" stroke="#4E4E4E" stroke-miterlimit="10" d="M60.031,39.661
		c-5.873-2.344-14.941-1.232-22.662,4.162c-7.721,5.395-17.301,23.758-17.301,23.758s30.85-9.879,38.571-15.275
		C66.359,46.911,65.904,42.002,60.031,39.661z M45.855,49.565c-1.949-0.777-1.828-2.596,0.27-4.063
		c2.102-1.468,5.383-2.025,7.332-1.248c1.949,0.776,1.826,2.596-0.271,4.063C51.086,49.785,47.805,50.342,45.855,49.565z"/>
	<path fill="#F39323" d="M20.462,0.707C9.875,0.498,1.154,7.537,0.899,20.458c-0.255,12.92,18.247,47.123,18.247,47.123
		s19.836-33.448,20.088-46.369C39.49,8.291,31.05,0.915,20.462,0.707z M19.997,24.43c-3.512-0.068-6.306-2.973-6.235-6.485
		c0.067-3.514,2.972-6.305,6.485-6.236s6.305,2.973,6.237,6.485C26.414,21.708,23.511,24.499,19.997,24.43z"/>
</g>
</svg>
