<?xml version="1.0" encoding="utf-8"?>
<!-- Generator: Adobe Illustrator 16.0.0, SVG Export Plug-In . SVG Version: 6.00 Build 0)  -->
<!DOCTYPE svg PUBLIC "-//W3C//DTD SVG 1.1//EN" "http://www.w3.org/Graphics/SVG/1.1/DTD/svg11.dtd">
<svg version="1.1" id="Calque_1" xmlns="http://www.w3.org/2000/svg" xmlns:xlink="http://www.w3.org/1999/xlink" x="0px" y="0px"
	 width="65.335px" height="69.167px" viewBox="0 0 65.335 69.167" enable-background="new 0 0 65.335 69.167" xml:space="preserve">
<g>
	<path opacity="0.3" fill="#4E4E4E" stroke="#4E4E4E" stroke-miterlimit="10" d="M60.031,40.102
		c-5.873-2.344-14.941-1.232-22.662,4.162S20.068,68.022,20.068,68.022s30.85-9.879,38.57-15.275
		C66.359,47.352,65.904,42.444,60.031,40.102z M45.855,50.006c-1.949-0.777-1.828-2.596,0.27-4.063
		c2.102-1.468,5.383-2.025,7.332-1.248c1.949,0.776,1.826,2.596-0.271,4.063C51.086,50.226,47.805,50.784,45.855,50.006z"/>
	<path fill="#E52620" d="M20.463,1.148C9.876,0.939,1.154,7.978,0.899,20.899c-0.255,12.92,18.247,47.123,18.247,47.123
		s19.836-33.448,20.089-46.369C39.49,8.732,31.051,1.356,20.463,1.148z M19.997,24.872c-3.512-0.068-6.306-2.973-6.235-6.485
		c0.067-3.514,2.972-6.305,6.485-6.236s6.305,2.973,6.237,6.485C26.414,22.149,23.512,24.94,19.997,24.872z"/>
</g>
</svg>
