<?xml version="1.0" encoding="utf-8"?>
<!-- Generator: Adobe Illustrator 16.0.0, SVG Export Plug-In . SVG Version: 6.00 Build 0)  -->
<!DOCTYPE svg PUBLIC "-//W3C//DTD SVG 1.1//EN" "http://www.w3.org/Graphics/SVG/1.1/DTD/svg11.dtd">
<svg version="1.1" id="Calque_1" xmlns="http://www.w3.org/2000/svg" xmlns:xlink="http://www.w3.org/1999/xlink" x="0px" y="0px"
	 width="65.335px" height="69.167px" viewBox="0 0 65.335 69.167" enable-background="new 0 0 65.335 69.167" xml:space="preserve">
<g>
	<path opacity="0.3" fill="#4E4E4E" stroke="#4E4E4E" stroke-miterlimit="10" d="M60.153,39.747
		c-5.873-2.344-14.941-1.232-22.662,4.162S20.19,67.667,20.19,67.667s30.85-9.879,38.57-15.275
		C66.481,46.997,66.026,42.088,60.153,39.747z M45.978,49.651c-1.949-0.777-1.828-2.596,0.27-4.063
		c2.102-1.469,5.383-2.025,7.332-1.248c1.949,0.775,1.826,2.596-0.271,4.063C51.208,49.87,47.927,50.428,45.978,49.651z"/>
	<path fill="#009245" d="M20.585,0.791C9.998,0.583,1.276,7.622,1.021,20.543c-0.255,12.92,18.247,47.124,18.247,47.124
		s19.836-33.449,20.089-46.37C39.612,8.376,31.173,1,20.585,0.791z M20.119,24.516c-3.512-0.068-6.306-2.973-6.235-6.485
		c0.067-3.515,2.972-6.305,6.485-6.236c3.514,0.069,6.305,2.974,6.237,6.485C26.536,21.793,23.634,24.584,20.119,24.516z"/>
</g>
</svg>
