<?xml version="1.0" encoding="utf-8"?>
<!-- Generator: Adobe Illustrator 16.0.0, SVG Export Plug-In . SVG Version: 6.00 Build 0)  -->
<!DOCTYPE svg PUBLIC "-//W3C//DTD SVG 1.1//EN" "http://www.w3.org/Graphics/SVG/1.1/DTD/svg11.dtd">
<svg version="1.1" id="Calque_1" xmlns="http://www.w3.org/2000/svg" xmlns:xlink="http://www.w3.org/1999/xlink" x="0px" y="0px"
	 width="36.333px" height="44.667px" viewBox="0 0 36.333 44.667" enable-background="new 0 0 36.333 44.667" xml:space="preserve">
<g>
	<path fill="#E52620" d="M2.253,21.198c0.344-0.271,0.447-0.753,0.241-1.139c-0.721-1.347-0.586-4.218,1.241-5.2
		c0.44-0.236,0.649-0.767,0.432-1.218c-0.776-1.615-0.663-4.947,1.786-5.599C6.413,7.92,6.712,7.489,6.652,7.016
		c-0.187-1.461,0.105-4.275,4.687-5.421c0.921-0.23,1.912-0.348,2.966-0.348c3.913,0,8.705,1.619,14.029,5.115
		c0.111,0.073,0.242,0.122,0.374,0.143l5.91,0.903c0.457,0.069,0.812,0.462,0.812,0.925v16.364c0,0.246-6.838,4.229-8.851,6.178
		c-2.548,2.473-4.378,7.111-6.975,11.148c-0.903,1.402-2.087,1.998-3.19,1.998c-2.071,0-3.858-2.105-2.969-4.941
		c0.823-2.625,1.681-4.967,2.857-7.076c0.958-1.717-0.286-3.834-2.252-3.834H4.006C0.142,28.17,0.25,22.775,2.253,21.198z"/>
</g>
</svg>
